<?xml version="1.0" encoding="UTF-8" standalone="no"?>
<svg width="40px" height="51px" viewBox="0 0 40 51" version="1.1" xmlns="http://www.w3.org/2000/svg" xmlns:xlink="http://www.w3.org/1999/xlink" xmlns:sketch="http://www.bohemiancoding.com/sketch/ns">
    <!-- Generator: Sketch 3.3.3 (12081) - http://www.bohemiancoding.com/sketch -->
    <title>Group</title>
    <desc>Created with Sketch.</desc>
    <defs></defs>
    <g id="Navigation" stroke="none" stroke-width="1" fill="none" fill-rule="evenodd" sketch:type="MSPage">
        <g id="Tracker-Why-Nav" sketch:type="MSArtboardGroup" transform="translate(-1068.000000, -166.000000)" stroke="#D82331" stroke-width="2" stroke-linecap="round" stroke-linejoin="round">
            <g id="Group" sketch:type="MSLayerGroup" transform="translate(1069.000000, 167.000000)">
                <path d="M10.6773796,19.2502086 C9.69845774,23.3469438 11.0100025,26.9089561 17.8877178,25.3068927 C23.2938925,29.8478268 25.9759278,27.696304 27.0558997,23.1722115 C28.1400819,18.6502242 24.8791143,9.66309025 20.2518666,6.39159664 C17.7571949,12.2882849 11.904716,14.1324473 10.6773796,19.2502086 L10.6773796,19.2502086 Z" id="Stroke-7676" sketch:type="MSShapeGroup"></path>
                <path d="M13.7364577,42 L24.2624989,42" id="Stroke-7677" sketch:type="MSShapeGroup"></path>
                <path d="M13.7364577,46 L24.2624989,46" id="Stroke-7678" sketch:type="MSShapeGroup"></path>
                <path d="M18,46.3671854 L18,48.4723936" id="Stroke-7679" sketch:type="MSShapeGroup"></path>
                <path d="M18.9994783,37.9463524 C18.9994783,37.9463524 15.7258795,21.3931 20.1068178,14.4353868" id="Stroke-7680" sketch:type="MSShapeGroup"></path>
                <path d="M37.9463524,17.9468741 C37.9463524,8.06713188 29.4623632,0.052604119 18.9994783,0.052604119 C8.53448811,0.052604119 0.052604119,8.06713188 0.052604119,17.9468741 C0.052604119,26.1024509 5.83561115,32.9717453 13.7364577,35.1274786 L13.7364577,37.9463524 L24.2624989,37.9463524 L24.2624989,35.1274786 C32.1633454,32.9717453 37.9463524,26.1024509 37.9463524,17.9468741 L37.9463524,17.9468741 Z" id="Stroke-7681" sketch:type="MSShapeGroup"></path>
            </g>
        </g>
    </g>
</svg>