<?xml version="1.0" encoding="UTF-8" standalone="no"?>
<svg width="45px" height="46px" viewBox="0 0 45 46" version="1.1" xmlns="http://www.w3.org/2000/svg" xmlns:xlink="http://www.w3.org/1999/xlink" xmlns:sketch="http://www.bohemiancoding.com/sketch/ns">
    <!-- Generator: Sketch 3.3.3 (12081) - http://www.bohemiancoding.com/sketch -->
    <title>Stroke 4674 + Stroke 4675 + Stroke 4676</title>
    <desc>Created with Sketch.</desc>
    <defs></defs>
    <g id="Navigation" stroke="none" stroke-width="1" fill="none" fill-rule="evenodd" sketch:type="MSPage">
        <g id="Tracker-Why-Nav" sketch:type="MSArtboardGroup" transform="translate(-820.000000, -166.000000)" stroke="#D82331" stroke-width="2" stroke-linejoin="round">
            <g id="Why-Tracker-DD" sketch:type="MSLayerGroup" transform="translate(279.000000, 142.000000)">
                <g id="Stroke-4674-+-Stroke-4675-+-Stroke-4676" transform="translate(541.000000, 25.000000)" sketch:type="MSShapeGroup">
                    <path d="M43.0677739,22 C43.0677739,33.6236522 33.6479478,43.0434783 22.0242957,43.0434783 C10.4044696,43.0434783 0.980817391,33.6236522 0.980817391,22 C0.980817391,10.3801739 10.4044696,0.956521739 22.0242957,0.956521739 C33.6479478,0.956521739 43.0677739,10.3801739 43.0677739,22 L43.0677739,22 Z" id="Stroke-4674"></path>
                    <path d="M17.241687,26.7826087 C17.241687,29.4245217 19.3823826,31.5652174 22.0242957,31.5652174 C24.6662087,31.5652174 26.8069043,29.4245217 26.8069043,26.7826087 C26.8069043,24.1426087 24.6662087,22 22.0242957,22 C19.3823826,22 17.241687,19.8593043 17.241687,17.2173913 C17.241687,14.5773913 19.3823826,12.4347826 22.0242957,12.4347826 C24.6662087,12.4347826 26.8069043,14.5773913 26.8069043,17.2173913" id="Stroke-4675" stroke-linecap="round"></path>
                    <path d="M22,9.56521739 L22,34.4347826" id="Stroke-4676" stroke-linecap="round"></path>
                </g>
            </g>
        </g>
    </g>
</svg>