<?xml version="1.0" encoding="UTF-8" standalone="no"?>
<svg width="125px" height="33px" viewBox="0 0 125 33" version="1.1" xmlns="http://www.w3.org/2000/svg" xmlns:xlink="http://www.w3.org/1999/xlink" xmlns:sketch="http://www.bohemiancoding.com/sketch/ns">
    <!-- Generator: Sketch 3.3.3 (12081) - http://www.bohemiancoding.com/sketch -->
    <title>TRACKER LOGO</title>
    <desc>Created with Sketch.</desc>
    <defs></defs>
    <g id="Navigation" stroke="none" stroke-width="1" fill="none" fill-rule="evenodd" sketch:type="MSPage">
        <g id="Tracker-Tools-Nav" sketch:type="MSArtboardGroup" transform="translate(-238.000000, -58.000000)">
            <g id="Main-Nav" sketch:type="MSLayerGroup" transform="translate(0.000000, 35.000000)">
                <g id="TRACKER-LOGO" transform="translate(238.000000, 23.000000)" sketch:type="MSShapeGroup">
                    <path d="M122.881281,21.0277198 C122.881281,20.5653138 123.243719,20.1918802 123.693467,20.1918802 C124.141332,20.1918802 124.503769,20.5653138 124.503769,21.0277198 C124.503769,21.4926321 124.141332,21.8660657 123.693467,21.8660657 C123.243719,21.8660657 122.881281,21.4926321 122.881281,21.0277198 L122.881281,21.0277198 Z M124.352387,21.0277198 C124.352387,20.6542862 124.056533,20.3485218 123.693467,20.3485218 C123.327889,20.3485218 123.033291,20.6542862 123.033291,21.0277198 C123.033291,21.4036597 123.327889,21.7094241 123.693467,21.7094241 C124.056533,21.7094241 124.352387,21.4036597 124.352387,21.0277198 L124.352387,21.0277198 Z M124.095477,21.4857399 L123.896985,21.4857399 L123.702889,21.1022812 L123.529523,21.1022812 L123.529523,21.4857399 L123.358668,21.4857399 L123.358668,20.5822311 L123.783291,20.5822311 C123.85804,20.5822311 123.953518,20.5847374 124.020101,20.6235845 C124.098618,20.6774692 124.122487,20.7645619 124.122487,20.8598 C124.122487,21.0227073 124.038317,21.091003 123.883166,21.1022812 L124.095477,21.4857399 L124.095477,21.4857399 Z M123.787688,20.9675695 C123.883166,20.9700757 123.951005,20.9462662 123.951005,20.8316045 C123.951005,20.7106772 123.827261,20.7106772 123.742462,20.7106772 L123.529523,20.7106772 L123.529523,20.9675695 L123.787688,20.9675695 L123.787688,20.9675695 Z" id="Fill-1" fill="#1A1918"></path>
                    <path d="M72.3021357,23.1561659 L71.5690955,26.736993 C72.491206,26.3572938 73.3907035,26.0321058 74.7738693,26.0321058 C77.6469849,26.0321058 79.3580402,27.2864918 79.4874372,28.6837349 C79.6947236,30.9199504 76.5376884,32.1605519 72.0414573,32.1605519 C69.9422111,32.1605519 67.589196,32.0308527 67.0238693,31.9782211 L68.7650754,23.1561659 L72.3021357,23.1561659 L72.3021357,23.1561659 Z M71.3310302,28.1868677 L70.8159548,30.6837349 C71.1645729,30.722582 72.0144472,30.7106772 72.1476131,30.7106772 C74.5665829,30.7106772 76.0012563,30.0947624 75.8806533,28.8015294 C75.8128141,28.0559153 75.0690955,27.4819805 73.6055276,27.4819805 C72.7003769,27.4819805 71.7719849,27.7952637 71.3310302,28.1868677 L71.3310302,28.1868677 Z" id="Fill-2" fill="#1A1918"></path>
                    <path d="M92.9334171,28.8272186 C93.1042714,30.6837349 90.3938442,32.1486472 86.4045226,32.1486472 C83,32.1486472 80.2028894,30.9587975 80.0527638,29.3240857 C79.8825377,27.4819805 82.8869347,26.0321058 86.7173367,26.0321058 C90.2550251,26.0321058 92.7801508,27.1812286 92.9334171,28.8272186 L92.9334171,28.8272186 Z M83.7066583,29.4293489 C83.7688442,30.1098 84.839196,30.7620557 86.3027638,30.7620557 C88.2726131,30.7620557 89.3404523,29.6643113 89.2613065,28.8146873 C89.1978643,28.1085469 88.3969849,27.4957649 86.6670854,27.4957649 C84.6721106,27.4957649 83.6281407,28.5653138 83.7066583,29.4293489 L83.7066583,29.4293489 Z" id="Fill-3" fill="#1A1918"></path>
                    <path d="M105.916457,26.2263414 L104.645729,32.057795 L101.214196,32.057795 L101.323492,31.5208276 C100.237437,31.8472687 99.6011307,32.1486472 97.9227387,32.1486472 C94.9974874,32.1486472 93.5772613,30.8535344 93.4629397,29.6260908 C93.2311558,27.1148126 97.2795226,26.0170682 101.666457,26.0170682 C102.944095,26.0170682 104.673995,26.0321058 105.916457,26.2263414 L105.916457,26.2263414 Z M97.0332915,29.7031584 C97.0835427,30.2407524 97.7236181,30.8403765 98.9736181,30.8403765 C100.064698,30.8403765 101.147613,30.4757148 101.532035,30.3178201 L102.097362,27.5064166 C101.882538,27.4957649 101.192211,27.4957649 101.192211,27.4957649 C98.5540201,27.4550381 96.9139447,28.4218301 97.0332915,29.7031584 L97.0332915,29.7031584 Z" id="Fill-4" fill="#1A1918"></path>
                    <path d="M112.967337,24.8923815 L112.603015,26.1361158 L115.236809,26.1361158 L114.904523,27.4418802 L112.244347,27.4418802 C112.244347,27.4418802 111.614322,29.8209529 111.618719,29.8735845 C111.655779,30.2783464 112.030151,30.5916296 112.748744,30.5916296 C113.359925,30.5916296 114.270101,30.3704517 114.866206,30.1868677 L115.013819,31.7958903 C114.047111,31.9920055 113.104271,32.1486472 112.040829,32.1486472 C109.753141,32.1486472 108.149497,31.4788477 108.023241,30.1098 C108.011935,29.9788477 108.707915,27.4418802 108.707915,27.4418802 L106.28706,27.4418802 L106.619347,26.1361158 L109.067211,26.1361158 L109.403266,24.8923815 L112.967337,24.8923815" id="Fill-5" fill="#1A1918"></path>
                    <path d="M124.502513,26.5534091 L124.33794,27.9519053 C123.467337,27.7426321 121.897613,27.4418802 120.942211,27.4418802 C120.620603,27.4418802 119.985553,27.4688226 120.01005,27.7307274 C120.06407,28.3178201 124.150126,28.788998 124.291457,30.3178201 C124.403266,31.5208276 122.410804,32.1486472 119.912688,32.1486472 C118.423367,32.1486472 117.128141,31.9512787 115.744347,31.6379955 L116.126884,30.3178201 C117.18593,30.5402512 118.617462,30.8021559 119.495603,30.8021559 C119.867462,30.8021559 120.711683,30.722582 120.687186,30.4619304 C120.628141,29.8084216 116.491206,29.3779705 116.352387,27.8735845 C116.237437,26.6072938 118.496231,26.0321058 120.678392,26.0321058 C122.380025,26.0321058 123.251256,26.2401258 124.502513,26.5534091" id="Fill-6" fill="#1A1918"></path>
                    <path d="M0.593592965,6.5189479 L5.80527638,6.5189479 L2.87562814,21.8002762 L8.67776382,21.8002762 L11.6067839,6.5189479 L16.8197236,6.5189479 L17.861809,1.08097798 L1.63693467,1.08097798 L0.593592965,6.5189479" id="Fill-7" fill="#1A1918"></path>
                    <path d="M70.7280151,8.99576495 C71.2807789,3.67057698 68.8580402,0.53335893 63.4497487,0.53335893 C58.5075377,0.53335893 53.8234925,4.70691783 52.5383166,11.4111785 C51.2468593,18.1448878 53.9824121,22.3485218 59.8341709,22.3485218 C64.5037688,22.3485218 68.3919598,19.1242111 69.9353015,13.7708276 L64.3542714,13.7708276 C63.7525126,15.7570431 62.5747487,17.2808527 60.7060302,17.2808527 C57.7556533,17.2808527 57.7386935,14.5483965 58.2971106,11.6430081 C59.0621859,7.64175492 60.6840452,5.59852184 62.7236181,5.59852184 C64.5452261,5.59852184 65.4623116,6.83536394 65.2204774,8.99576495 L70.7280151,8.99576495" id="Fill-8" fill="#1A1918"></path>
                    <path d="M69.5734925,21.8002762 L75.3762563,21.8002762 L76.6325377,15.2394993 L78.3341709,13.5415043 L81.0050251,21.8002762 L87.9623116,21.8002762 L83.285804,8.87922359 L91.2481156,1.08097798 L84.4378141,1.08097798 L78.0615578,7.7858652 L79.3473618,1.08097798 L73.544598,1.08097798 L69.5734925,21.8002762" id="Fill-9" fill="#1A1918"></path>
                    <path d="M103.984925,21.8002762 L104.911432,16.9663163 L95.9365578,16.9663163 L96.5596734,13.7131835 L103.861809,13.7131835 L104.788945,8.87922359 L97.486809,8.87922359 L98.0546482,5.91493788 L106.684673,5.91493788 L107.610553,1.08097798 L93.1796482,1.08097798 L89.2079146,21.8002762 L103.984925,21.8002762" id="Fill-10" fill="#1A1918"></path>
                    <path d="M24.0025126,5.91493788 L26.7079146,5.91493788 C28.0584171,5.91493788 28.9114322,6.60604063 28.629397,8.07345918 C28.3530151,9.51205567 27.2958543,10.0295995 25.5,10.0295995 L23.214196,10.0295995 L24.0025126,5.91493788 L24.0025126,5.91493788 Z M24.1124372,14.576592 C26.8172111,14.576592 27.0389447,15.4688226 26.5207286,18.1755895 C26.1689698,20.0158151 26.0621859,21.3391233 26.1199749,21.8002762 L31.9962312,21.8002762 L32.1174623,21.1674441 C31.4296482,21.1674441 31.6802764,20.2463915 32.1978643,17.5415043 C32.9974874,13.3679454 31.9667085,12.8504015 30.2531407,12.0446371 C32.4447236,11.3817299 33.7399497,9.36919853 34.1984925,6.97884765 C34.9711055,2.95065216 33.3869347,1.08097798 27.486809,1.08097798 L19.1281407,1.08097798 L15.1551508,21.8002762 L20.9585427,21.8002762 L22.3429648,14.576592 L24.1124372,14.576592 L24.1124372,14.576592 Z" id="Fill-11" fill="#1A1918"></path>
                    <path d="M45.6947236,14.7501509 L42.031407,14.7501509 L45.2487437,7.32533888 L45.6947236,14.7501509 L45.6947236,14.7501509 Z M38.9095477,21.8002762 L40.0967337,19.066567 L45.8743719,19.066567 L46.0389447,21.8002762 L51.8153266,21.8002762 L49.446608,1.08097798 L43.5452261,1.08097798 L33.2305276,21.8002762 L38.9095477,21.8002762 L38.9095477,21.8002762 Z" id="Fill-12" fill="#1A1918"></path>
                    <path d="M114.126884,5.91493788 L116.83103,5.91493788 C118.182789,5.91493788 119.033291,6.60604063 118.753769,8.07345918 C118.476131,9.51205567 117.41897,10.0295995 115.623744,10.0295995 L113.337312,10.0295995 L114.126884,5.91493788 L114.126884,5.91493788 Z M114.236181,14.576592 C116.940327,14.576592 117.163317,15.4688226 116.643216,18.1755895 C116.291457,20.0158151 116.184673,21.3391233 116.243719,21.8002762 L122.119975,21.8002762 L122.241206,21.1674441 C121.553392,21.1674441 121.803392,20.2463915 122.32098,17.5415043 C123.122487,13.3679454 122.090452,12.8504015 120.376884,12.0446371 C122.567839,11.3817299 123.864322,9.36919853 124.322236,6.97884765 C125.093593,2.95065216 123.51005,1.08097798 117.611181,1.08097798 L109.250628,1.08097798 L105.278894,21.8002762 L111.08103,21.8002762 L112.46608,14.576592 L114.236181,14.576592 L114.236181,14.576592 Z" id="Fill-13" fill="#1A1918"></path>
                    <path d="M64.5584171,31.9475193 L65.8046482,25.4531584 L1.84610553,25.4531584 L0.593592965,31.9475193 L64.5584171,31.9475193" id="Fill-14" fill="#D82331"></path>
                </g>
            </g>
        </g>
    </g>
</svg>