<?xml version="1.0" encoding="UTF-8" standalone="no"?>
<svg width="46px" height="46px" viewBox="0 0 46 46" version="1.1" xmlns="http://www.w3.org/2000/svg" xmlns:xlink="http://www.w3.org/1999/xlink" xmlns:sketch="http://www.bohemiancoding.com/sketch/ns">
    <!-- Generator: Sketch 3.3.3 (12081) - http://www.bohemiancoding.com/sketch -->
    <title>Stroke 3334 + Stroke 3335</title>
    <desc>Created with Sketch.</desc>
    <defs></defs>
    <g id="Navigation" stroke="none" stroke-width="1" fill="none" fill-rule="evenodd" sketch:type="MSPage">
        <g id="Tracker-Why-Nav" sketch:type="MSArtboardGroup" transform="translate(-574.000000, -166.000000)" stroke="#D82331" stroke-width="2" stroke-linejoin="round">
            <g id="Why-Tracker-DD" sketch:type="MSLayerGroup" transform="translate(279.000000, 142.000000)">
                <g id="Stroke-3334-+-Stroke-3335" transform="translate(296.000000, 25.000000)" sketch:type="MSShapeGroup">
                    <path d="M31.1666667,15.5833333 L17.4166667,28.4166667 L12.8333333,23.8333333" id="Stroke-3334" stroke-linecap="round"></path>
                    <path d="M43.0833333,22 C43.0833333,20.207 41.7908333,18.7183333 40.0876667,18.403 C41.5378333,17.4588333 42.1611667,15.5906667 41.4791667,13.9333333 C40.7916667,12.2723333 39.028,11.3941667 37.3321667,11.7535 C38.313,10.3271667 38.1736667,8.36183333 36.905,7.09133333 C35.6363333,5.8245 33.671,5.687 32.2446667,6.66416667 C32.604,4.97016667 31.724,3.21016667 30.063,2.52266667 C28.4056667,1.83516667 26.5393333,2.4585 25.5951667,3.9105 C25.278,2.20733333 23.793,0.916666667 22,0.916666667 C20.2015,0.916666667 18.7165,2.20733333 18.3975,3.9105 C17.4551667,2.4585 15.587,1.83516667 13.9278333,2.52266667 C12.2686667,3.20833333 11.3905,4.97016667 11.748,6.66416667 C10.3216667,5.687 8.35816667,5.8245 7.08766667,7.09316667 C5.819,8.36183333 5.6815,10.3271667 6.6605,11.7535 C4.9665,11.3941667 3.21016667,12.2741667 2.52266667,13.9333333 C1.83516667,15.5906667 2.45483333,17.4588333 3.905,18.4011667 C2.20183333,18.7183333 0.916666667,20.207 0.916666667,22 C0.916666667,23.7948333 2.20366667,25.2816667 3.905,25.5988333 C2.45483333,26.5448333 1.83516667,28.413 2.52083333,30.0703333 C3.20833333,31.7276667 4.9665,32.6058333 6.6605,32.2483333 C5.6815,33.6765 5.82083333,35.64 7.08766667,36.9105 C8.35816667,38.1773333 10.3198333,38.3166667 11.748,37.3395 C11.3905,39.0316667 12.2705,40.7916667 13.9296667,41.4791667 C15.587,42.1666667 17.4551667,41.5433333 18.3975,40.0913333 C18.7165,41.7945 20.2051667,43.0833333 22,43.0833333 C23.793,43.0833333 25.278,41.7945 25.5951667,40.0913333 C26.5393333,41.5433333 28.4056667,42.163 30.0648333,41.4791667 C31.724,40.7916667 32.6021667,39.0316667 32.2446667,37.3358333 C33.671,38.3166667 35.6363333,38.1773333 36.905,36.9105 C38.1736667,35.64 38.313,33.6765 37.3321667,32.2483333 C39.0261667,32.6076667 40.7916667,31.7276667 41.4791667,30.0703333 C42.1666667,28.413 41.5396667,26.5448333 40.0876667,25.5988333 C41.789,25.2835 43.0833333,23.7948333 43.0833333,22 L43.0833333,22 Z" id="Stroke-3335"></path>
                </g>
            </g>
        </g>
    </g>
</svg>