<?xml version="1.0" encoding="UTF-8" standalone="no"?><svg viewBox="0 0 173 23" version="1.1" xmlns="http://www.w3.org/2000/svg" xmlns:xlink="http://www.w3.org/1999/xlink" xmlns:sketch="http://www.bohemiancoding.com/sketch/ns"><g id="Home" stroke="none" stroke-width="1" fill="none" fill-rule="evenodd" sketch:type="MSPage"><g id="Home-Copy-3" sketch:type="MSArtboardGroup" transform="translate(-238.000000, -65.000000)"><g id="Imported-Layers" sketch:type="MSLayerGroup" transform="translate(238.000000, 65.000000)"> <path d="M170.839196,2.71588525 C169.690763,1.19298361 167.534858,0.211147541 165.351063,0.211147541 L142.994865,0.211147541 C141.303686,0.221327869 135.666675,0.571606557 134.050878,4.76363934 C133.913307,5.12409836 132.999309,7.21747541 132.190468,9.06237705 L130.615,12.6714918 C129.79259,14.6295082 129.684041,16.3043607 130.289353,17.6549508 L125.668858,14.7588361 C128.093497,14.0205738 129.94373,12.2175246 131.171314,9.38852459 C131.708405,8.15519672 131.980155,7.00444262 131.980155,5.97886885 C131.980155,4.93632787 131.704259,4.0012459 131.159253,3.19813115 C129.83895,1.24463934 126.985392,0.211147541 122.90802,0.211147541 L37.3386013,0.211147541 L37.2813115,0.342360656 C37.2813115,0.342360656 34.0738388,7.69368852 33.1289346,9.86737705 C30.8241525,8.1665082 20.1151133,0.253377049 20.1151133,0.253377049 L20.0574466,0.211147541 L9.01710675,0.211147541 L0.310947712,21.0054098 L13.8972898,21.0054098 L17.6132092,12.3709836 L29.9207081,20.9658197 L55.0177691,21.0054098 L60.4135599,8.64686885 L71.3412048,8.64686885 C70.1916405,11.2741475 66.078085,20.7049016 66.078085,20.7049016 L65.9480523,21.0054098 L79.1507037,21.0054098 L79.2076166,20.8738197 C79.2076166,20.8738197 83.4915338,10.9306557 84.4805359,8.64686885 L94.04378,8.64686885 L88.7437233,21.0054098 L102.084699,21.0054098 L104.498031,15.3606066 L107.179342,15.3606066 C108.017582,15.9782131 114.786065,20.960541 114.786065,20.960541 L114.843732,21.0054098 L158.553558,21.0054098 C160.600536,21.0054098 165.549316,20.6208197 167.310599,17.0460164 C167.598932,16.4563115 169.151786,12.9655902 170.288913,10.4133443 L171.459961,7.78681967 C172.043412,6.51616393 171.974438,4.21691803 170.839196,2.71588525 L170.839196,2.71588525 Z M158.414856,9.43188525 C158.197381,9.94580328 157.7809,10.9317869 157.7809,10.9317869 C157.573978,11.3740656 157.460153,11.6176393 155.969488,11.6176393 L147.032662,11.615 C145.617002,11.615 144.433893,11.615 143.868157,11.6176393 L144.563172,9.99218033 C144.745218,9.57327869 144.94837,9.42811475 146.541176,9.42811475 C150.235612,9.42811475 156.898562,9.43 158.414856,9.43188525 L158.414856,9.43188525 Z M120.600599,7.33209836 C120.390285,7.72234426 120.037501,7.86713115 119.321002,7.86713115 L106.606068,7.86713115 L106.810351,7.33209836 L120.600599,7.33209836 L120.600599,7.33209836 Z" id="Fill-1" fill="#231F1F" sketch:type="MSShapeGroup"></path> <path d="M171.722664,3.60006557 C170.574608,2.07678689 168.419081,1.09532787 166.234908,1.09532787 L143.878333,1.09532787 C142.187908,1.1055082 136.550521,1.45578689 134.934723,5.64781967 C134.797153,6.00827869 133.883155,8.10165574 133.073937,9.94655738 L131.499222,13.5556721 C130.676436,15.5136885 130.567887,17.1877869 131.172821,18.538377 L126.552704,15.6426393 C128.976965,14.904377 130.827198,13.1017049 132.054782,10.2727049 C132.592251,9.03937705 132.864,7.88862295 132.864,6.86304918 C132.864,5.8205082 132.587728,4.88542623 132.043098,4.08231148 C130.722795,2.12881967 127.869237,1.09532787 123.791488,1.09532787 L38.2224466,1.09532787 L38.1651569,1.22616393 C38.1651569,1.22616393 34.9576841,8.57786885 34.01278,10.7515574 C31.7079978,9.05031148 20.9989586,1.13755738 20.9989586,1.13755738 L20.9412919,1.09532787 L9.90095207,1.09532787 L1.19479303,21.888459 L14.7811351,21.888459 L18.4966776,13.2551639 L30.8045534,21.8488689 L55.9016144,21.888459 L61.2974052,9.53067213 L72.2250501,9.53067213 C71.0751089,12.1583279 66.9619303,21.5883279 66.9619303,21.5883279 L66.8318976,21.888459 L80.034549,21.888459 L80.0914619,21.7572459 C80.0914619,21.7572459 84.3753791,11.8148361 85.3640044,9.53067213 L94.9272484,9.53067213 L89.6275686,21.888459 L102.968168,21.888459 L105.381876,16.2447869 L108.063187,16.2447869 C108.901427,16.8616393 115.669911,21.8435902 115.669911,21.8435902 L115.727577,21.888459 L159.437403,21.888459 C161.484004,21.888459 166.433161,21.5034918 168.194444,17.9294426 C168.482778,17.3393607 170.035632,13.8493934 171.172758,11.2971475 L172.343806,8.671 C172.927257,7.40034426 172.858283,5.10072131 171.722664,3.60006557 L171.722664,3.60006557 Z M159.297948,10.3156885 C159.08085,10.8299836 158.664745,11.8155902 158.664745,11.8155902 C158.457824,12.2582459 158.343621,12.5014426 156.852956,12.5014426 L147.916131,12.4988033 C146.500471,12.4988033 145.317739,12.4988033 144.752002,12.5014426 L145.446641,10.8763607 C145.628686,10.457082 145.832216,10.3122951 147.425022,10.3122951 C151.119458,10.3122951 157.782407,10.3138033 159.297948,10.3156885 L159.297948,10.3156885 Z M121.484444,8.21665574 C121.274131,8.60614754 120.921346,8.75131148 120.204847,8.75131148 L107.489913,8.75131148 L107.694196,8.21665574 L121.484444,8.21665574 L121.484444,8.21665574 Z" id="Fill-2" fill="#231F1F" sketch:type="MSShapeGroup"></path> <path d="M170.839196,2.71588525 C169.690763,1.19298361 167.534858,0.211147541 165.351063,0.211147541 L142.994865,0.211147541 C141.303686,0.221327869 135.666675,0.571606557 134.050878,4.76363934 C133.913307,5.12409836 132.999309,7.21747541 132.190468,9.06237705 L130.615,12.6714918 C129.79259,14.6295082 129.684041,16.3043607 130.289353,17.6549508 L125.668858,14.7588361 C128.093497,14.0205738 129.94373,12.2175246 131.171314,9.38852459 C131.708405,8.15519672 131.980155,7.00444262 131.980155,5.97886885 C131.980155,4.93632787 131.704259,4.0012459 131.159253,3.19813115 C129.83895,1.24463934 126.985392,0.211147541 122.90802,0.211147541 L37.3386013,0.211147541 L37.2813115,0.342360656 C37.2813115,0.342360656 34.0738388,7.69368852 33.1289346,9.86737705 C30.8241525,8.1665082 20.1151133,0.253377049 20.1151133,0.253377049 L20.0574466,0.211147541 L9.01710675,0.211147541 L0.310947712,21.0054098 L13.8972898,21.0054098 L17.6132092,12.3709836 L29.9207081,20.9658197 L55.0177691,21.0054098 L60.4135599,8.64686885 L71.3412048,8.64686885 C70.1916405,11.2741475 66.078085,20.7049016 66.078085,20.7049016 L65.9480523,21.0054098 L79.1507037,21.0054098 L79.2076166,20.8738197 C79.2076166,20.8738197 83.4915338,10.9306557 84.4805359,8.64686885 L94.04378,8.64686885 L88.7437233,21.0054098 L102.084699,21.0054098 L104.498031,15.3606066 L107.179342,15.3606066 C108.017582,15.9782131 114.786065,20.960541 114.786065,20.960541 L114.843732,21.0054098 L158.553558,21.0054098 C160.600536,21.0054098 165.549316,20.6208197 167.310599,17.0460164 C167.598932,16.4563115 169.151786,12.9655902 170.288913,10.4133443 L171.459961,7.78681967 C172.043412,6.51616393 171.974438,4.21691803 170.839196,2.71588525 L170.839196,2.71588525 Z M158.414856,9.43188525 C158.197381,9.94580328 157.7809,10.9317869 157.7809,10.9317869 C157.573978,11.3740656 157.460153,11.6176393 155.969488,11.6176393 L147.032662,11.615 C145.617002,11.615 144.433893,11.615 143.868157,11.6176393 L144.563172,9.99218033 C144.745218,9.57327869 144.94837,9.42811475 146.541176,9.42811475 C150.235612,9.42811475 156.898562,9.43 158.414856,9.43188525 L158.414856,9.43188525 Z M120.600599,7.33209836 C120.390285,7.72234426 120.037501,7.86713115 119.321002,7.86713115 L106.606068,7.86713115 L106.810351,7.33209836 L120.600599,7.33209836 L120.600599,7.33209836 Z" id="Fill-3" fill="#231F1F" sketch:type="MSShapeGroup"></path> <path d="M165.806366,21.6166066 C165.806366,20.8745738 166.403763,20.2735574 167.137599,20.2735574 C167.87332,20.2735574 168.466571,20.8745738 168.466571,21.6166066 C168.466571,22.3658033 167.87332,22.9671967 167.137599,22.9671967 C166.403763,22.9671967 165.806366,22.3658033 165.806366,21.6166066 L165.806366,21.6166066 Z M168.219697,21.6166066 C168.219697,21.0170984 167.734996,20.5265574 167.137599,20.5265574 C166.538318,20.5265574 166.055501,21.0170984 166.055501,21.6166066 C166.055501,22.2221475 166.538318,22.7153279 167.137599,22.7153279 C167.734996,22.7153279 168.219697,22.2221475 168.219697,21.6166066 L168.219697,21.6166066 Z M167.799824,22.3548689 L167.4738,22.3548689 L167.153052,21.7372623 L166.870373,21.7372623 L166.870373,22.3548689 L166.5892,22.3548689 L166.5892,20.9005902 L167.2861,20.9005902 C167.40671,20.9005902 167.564257,20.9054918 167.673937,20.9669508 C167.804346,21.0566885 167.842037,21.1939344 167.842037,21.3473934 C167.842037,21.6079344 167.705974,21.7202951 167.448924,21.7372623 L167.799824,22.3548689 L167.799824,22.3548689 Z M167.292508,21.5234754 C167.448924,21.5242295 167.561619,21.4869016 167.561619,21.3025246 C167.561619,21.1075902 167.358089,21.1075902 167.21788,21.1075902 L166.870373,21.1075902 L166.870373,21.5234754 L167.292508,21.5234754 L167.292508,21.5234754 Z" id="Fill-4" fill="#231F1F" sketch:type="MSShapeGroup"></path> <path d="M38.0343704,1.20844262 L38.0000719,1.28686885 C38.0000719,1.28686885 34.1631656,10.1218852 33.5706688,11.4819016 C32.0724662,10.3786557 19.7355686,1.30157377 19.6609412,1.27744262 L9.72342919,1.27744262 L1.87963181,20.0081148 L13.1951133,19.9975574 L13.228281,19.918377 C13.228281,19.918377 16.6046078,12.0565246 17.1526296,10.7832295 L30.3575425,19.9738033 L40.9376797,19.9738033 L48.9812375,1.20844262 L38.0343704,1.20844262" id="Fill-5" fill="#F3A457" sketch:type="MSShapeGroup"></path> <path d="M169.991534,3.32859016 C169.043237,2.07263934 167.223911,1.25821311 165.351063,1.25821311 L149.13693,1.25595082 C145.957349,1.25595082 143.454314,1.25821311 142.997503,1.25821311 C141.478948,1.26688525 136.408427,1.56437705 135.034603,5.12786885 C134.874418,5.55204918 133.753499,8.10693443 132.8542,10.1595902 C132.255673,11.5260164 131.733658,12.7231475 131.581388,13.0820984 C130.823052,14.8934426 130.755586,16.3820328 131.383512,17.5052623 C132.113956,18.8177705 133.623466,19.6389836 135.904126,19.956459 L158.553558,19.956459 C160.40266,19.956459 164.868246,19.6306885 166.360041,16.6010984 C166.637444,16.0332623 168.172207,12.5870328 169.291242,10.0732459 C169.887885,8.73660656 170.371455,7.64806557 170.501111,7.36678689 C170.963198,6.35252459 170.870102,4.48839344 169.991534,3.32859016 L169.991534,3.32859016 Z M159.620956,9.2712623 L159.519569,9.5212459 C159.327723,10.0072623 159.087257,10.6101639 158.741257,11.3525738 C158.330052,12.2409016 157.833667,12.6334098 155.969488,12.6334098 C155.287288,12.6334098 153.610431,12.6379344 151.62715,12.6428361 C148.767185,12.6488689 145.273641,12.657541 143.222516,12.657541 C142.910438,12.657541 142.706908,12.5911803 142.622105,12.4644918 C142.510917,12.3019836 142.559161,11.9935574 142.765329,11.523377 C142.883678,11.2560492 143.052532,10.8601475 143.235331,10.4288033 L143.591508,9.59137705 C144.075078,8.47606557 145.027898,8.39763934 146.541176,8.39763934 L158.480438,8.39763934 C159.166407,8.39763934 159.546706,8.47945902 159.668447,8.65629508 C159.750235,8.77770492 159.73742,8.97904918 159.620956,9.2712623 L159.620956,9.2712623 Z" id="Fill-6" fill="#F3A457" sketch:type="MSShapeGroup"></path> <path d="M122.757634,14.1619672 C122.796832,14.160082 122.835277,14.1551803 122.873344,14.1514098 C124.567538,14.0541311 128.089728,13.8493934 130.203795,8.98395082 C131.139654,6.8302459 131.164529,5.07319672 130.281438,3.76822951 C128.863516,1.67409836 125.489074,1.23483607 122.90802,1.23483607 L98.3589804,1.23483607 L90.3263529,19.971918 L101.385161,19.971918 L103.796985,14.3301311 L107.494813,14.3041148 C107.625976,14.4025246 115.161841,19.9459016 115.242122,19.971918 L132.033675,19.971918 L131.654131,19.7321148 C131.654131,19.7321148 124.686641,15.3685246 122.757634,14.1619672 L122.757634,14.1619672 Z M106.079153,6.30162295 L120.930015,6.30162295 C121.439593,6.30162295 121.689481,6.36345902 121.793131,6.51616393 C121.918264,6.70091803 121.862105,7.05798361 121.624654,7.61865574 C121.138444,8.76413115 120.085745,8.89534426 119.291603,8.89534426 L105.088266,8.89534426 L106.079153,6.30162295 L106.079153,6.30162295 Z" id="Fill-7" fill="#F3A457" sketch:type="MSShapeGroup"></path> <path d="M96.9267364,1.23483607 L64.1166645,1.23483607 L61.378817,7.61337705 L72.9366492,7.61337705 C72.2329651,9.23581967 67.6222702,19.7856557 67.6222702,19.7856557 L67.5427429,19.9666393 L78.4522963,19.9666393 L78.485841,19.887459 C78.5359695,19.7701967 83.3207952,8.6702459 83.7847669,7.61337705 L94.1515752,7.61337705 L96.9267364,1.23483607" id="Fill-8" fill="#F3A457" sketch:type="MSShapeGroup"></path> <path d="M50.7994336,1.23144262 L42.7521068,20.0149016 L54.3216231,20.0149016 L62.5042593,1.23144262 L50.7994336,1.23144262" id="Fill-9" fill="#F3A457" sketch:type="MSShapeGroup"></path> <path id="Fill-10" fill="#231F1F" sketch:type="MSShapeGroup"></path> <path id="Fill-11" fill="#231F1F" sketch:type="MSShapeGroup"></path> <path d="M170.120813,5.94191803 C170.120813,5.09996721 169.867155,4.23577049 169.455196,3.68904918 C168.636932,2.60880328 166.922763,1.85319672 165.282843,1.85319672 L163.178198,1.85281967 L142.933806,1.85319672 C141.507216,1.85847541 136.760458,2.12618033 135.518551,5.35183607 L135.563403,5.36654098 C135.347059,5.74509836 134.85105,6.89396721 133.329479,10.3941148 L132.064582,13.3011639 C131.672222,14.2324754 131.474723,15.0642459 131.474723,15.7817705 C131.474723,16.3318852 131.593826,16.8254426 131.831277,17.2462295 C132.468248,18.3917049 133.827749,19.1160164 135.883397,19.4063443 C135.911664,19.4063443 135.922218,19.4097377 138.767484,19.4097377 L158.485338,19.404459 C159.845969,19.404459 164.382037,19.1872787 165.769052,16.3628033 C165.789782,16.3164262 168.760181,9.69808197 168.760181,9.69808197 L168.754904,9.69393443 C168.834431,9.53519672 169.072259,9.00732787 169.898438,7.15111475 C170.043924,6.83627869 170.120813,6.40606557 170.120813,5.94191803 L170.120813,5.94191803 Z M159.655255,10.549459 L159.208621,11.6051967 C158.632708,12.8441803 157.831028,13.2408361 155.903153,13.2408361 L143.155804,13.2408361 C142.627381,13.2408361 142.261028,13.0922787 142.068052,12.8008197 C141.961765,12.6454754 141.909375,12.4644918 141.909375,12.259 C141.909375,11.8744098 142.083505,11.484541 142.165294,11.308459 C142.192054,11.2454918 142.98695,9.39191803 142.98695,9.39191803 C143.655205,7.8437541 145.153031,7.8437541 146.475595,7.8437541 L158.414856,7.8437541 C158.842268,7.8437541 159.729505,7.8437541 160.085305,8.35277049 C160.283935,8.63555738 160.286573,9.02127869 160.100758,9.49560656 L160.067214,9.59967213 C159.979394,9.78706557 159.858784,10.0732459 159.655255,10.549459 L159.655255,10.549459 Z" id="Fill-12" fill="#231F1F" sketch:type="MSShapeGroup"></path> <path d="M38.3558715,1.80078689 L33.7489455,12.4007705 L19.4419586,1.87054098 L10.0509608,1.87054098 L2.68847277,19.4527213 L12.7398105,19.4455574 L12.8080305,19.2905902 C12.8080305,19.2905902 16.1063377,11.6051967 16.829244,9.92318033 C18.7985795,11.2971475 30.367719,19.373541 30.367719,19.373541 L30.4366928,19.4251967 L40.4808693,19.4251967 L48.0348257,1.80078689 L38.3558715,1.80078689" id="Fill-13" fill="#231F1F" sketch:type="MSShapeGroup"></path> <path d="M129.596222,8.77959016 C130.041725,7.75477049 130.269377,6.82006557 130.269377,6.00752459 C130.269377,5.27793443 130.086954,4.64109836 129.725501,4.10455738 C128.745922,2.65819672 126.236856,1.82944262 122.839046,1.82944262 L98.682366,1.82944262 L91.1400937,19.419918 L100.926466,19.419918 L103.340174,13.777377 L107.658767,13.777377 L115.323911,19.419918 L129.967475,19.419918 L120.892702,13.7340164 L122.772333,13.6012951 C124.588268,13.4953443 127.627641,13.3181311 129.596222,8.77959016 L129.596222,8.77959016 Z M105.604251,5.74886885 L120.862549,5.74886885 C121.248124,5.74886885 121.893011,5.74886885 122.21112,6.22131148 C122.574081,6.75445902 122.227704,7.55304918 122.097294,7.85921311 C121.780693,8.6035082 121.033288,9.48768852 119.251275,9.48768852 L104.173891,9.48768852 L105.604251,5.74886885 L105.604251,5.74886885 Z" id="Fill-14" fill="#231F1F" sketch:type="MSShapeGroup"></path> <path d="M43.5643399,19.4647869 L53.867451,19.4647869 L61.5540784,1.82416393 L51.1171656,1.82416393 L43.5643399,19.4647869" id="Fill-15" fill="#231F1F" sketch:type="MSShapeGroup"></path> <path d="M95.9750479,1.82944262 L64.4415577,1.82944262 L62.1921808,7.06213115 L73.7552898,7.06213115 C72.840915,9.15739344 68.5196841,19.0492787 68.5196841,19.0492787 L68.3621373,19.4112459 L77.994732,19.4112459 L78.3147255,18.6778852 C79.8690871,15.0642459 83.1161351,7.54098361 83.2182767,7.32040984 L83.3388867,7.06213115 L93.6989107,7.06213115 L95.9750479,1.82944262" id="Fill-16" fill="#231F1F" sketch:type="MSShapeGroup"></path> <path d="M60.4033834,2.56695082 C60.1229651,3.20755738 53.4894139,18.438082 53.3654118,18.7246393 L44.706366,18.7246393 C44.9811307,18.0829016 51.4993486,2.85501639 51.6229739,2.56695082 L60.4033834,2.56695082" id="Fill-17" fill="#FFFFFF" sketch:type="MSShapeGroup"></path><path d="M10.5582767,2.61332787 L19.186793,2.61332787 L34.068939,13.5632131 L38.8575338,2.54583607 L46.8916688,2.54583607 L39.9761917,18.6797705 L30.6805512,18.6797705 L16.4956819,8.77770492 L12.234756,18.7039016 L3.82220697,18.7091803 L10.5582767,2.61332787" id="Fill-18" fill="#FFFFFF" sketch:type="MSShapeGroup"></path><path d="M94.8266144,2.57185246 C94.586902,3.12045902 93.3057974,6.06785246 93.1953638,6.31972131 L82.8530545,6.31972131 L82.528915,7.01160656 C82.3902135,7.30457377 77.6611699,18.2744426 77.6133028,18.3883115 C77.6133028,18.3883115 77.5469673,18.5402623 77.4900545,18.6695902 L69.5124553,18.6695902 C69.7932505,18.0293607 74.9067386,6.31972131 74.9067386,6.31972131 L63.3360915,6.31972131 C63.5724118,5.77111475 64.8350479,2.82636066 64.9447277,2.57185246 L94.8266144,2.57185246" id="Fill-19" fill="#FFFFFF" sketch:type="MSShapeGroup"></path><path d="M122.839046,2.57185246 C125.977168,2.57185246 128.257074,3.27995082 129.090791,4.51516393 C129.369325,4.92501639 129.50878,5.428 129.50878,6.00752459 C129.50878,6.72165574 129.302989,7.55568852 128.897438,8.49077049 C127.113917,12.6024918 124.365139,12.765377 122.721828,12.8611475 C122.718436,12.8611475 118.558898,13.1518525 118.558898,13.1518525 C118.558898,13.1518525 126.167882,17.9207705 127.373983,18.6778852 L115.579076,18.6778852 C115.44829,18.5794754 107.912048,13.0353443 107.912048,13.0353443 L102.834743,13.0353443 C102.834743,13.0353443 100.543906,18.3932131 100.421035,18.6778852 L92.2821198,18.6778852 C92.5580153,18.0365246 99.0660566,2.85765574 99.1874205,2.57185246 L122.839046,2.57185246 L122.839046,2.57185246 Z M105.080728,5.00759016 L103.078601,10.2319836 L119.251275,10.2319836 C121.447508,10.2338689 122.392789,9.09781967 122.796832,8.14727869 C122.971717,7.74006557 123.431166,6.66811475 122.845076,5.80806557 C122.296678,5.00759016 121.292222,5.00759016 120.862549,5.00759016 L105.080728,5.00759016 L105.080728,5.00759016 Z" id="Fill-20" fill="#FFFFFF" sketch:type="MSShapeGroup"></path><path d="M142.936068,2.59786885 L163.175937,2.59522951 L165.282843,2.59786885 C166.698503,2.59786885 168.158261,3.22678689 168.842346,4.13057377 C169.161963,4.55588525 169.362854,5.25003279 169.362854,5.94191803 C169.362854,6.29898361 169.304057,6.63040984 169.204553,6.85286885 L168.06102,9.40586885 C165.077052,16.054377 165.074414,16.0596557 165.071776,16.0645574 C163.887913,18.4708852 159.732144,18.6590328 158.485338,18.6590328 C158.263717,18.6590328 136.40315,18.6677049 135.964054,18.6624262 C134.178649,18.4124426 133.012878,17.817459 132.495763,16.8910492 C132.323893,16.5807377 132.23532,16.2078361 132.23532,15.7817705 C132.23532,15.1641639 132.413597,14.4259016 132.765627,13.5858361 C132.763743,13.5892295 134.029771,10.6848197 134.029771,10.6848197 L135.883397,6.41285246 C136.067704,5.98414754 136.173991,5.74170492 136.218466,5.59163934 C136.218466,5.59239344 136.22902,5.6142623 136.22902,5.6142623 C137.301695,2.829 141.634987,2.6005082 142.936068,2.59786885 L142.936068,2.59786885 Z M146.475595,7.10134426 C145.153031,7.10134426 143.150904,7.10134426 142.287035,9.10045902 C142.283643,9.10045902 141.465379,11.017 141.459725,11.0309508 C141.362861,11.2481311 141.151416,11.7277377 141.151416,12.259 C141.151416,12.6111639 141.244512,12.9286393 141.430704,13.2087869 C141.771804,13.7238361 142.352617,13.984 143.155804,13.984 L155.903153,13.984 C158.118231,13.984 159.203721,13.4191803 159.903636,11.9038197 C159.906275,11.9004262 160.809719,9.76972131 160.809719,9.76972131 C161.091645,9.04691803 161.059608,8.43270492 160.713985,7.93160656 C160.130157,7.10134426 158.970416,7.10134426 158.414856,7.10134426 L146.475595,7.10134426 L146.475595,7.10134426 Z" id="Fill-21" fill="#FFFFFF" sketch:type="MSShapeGroup"></path><path d="M57.8268519,7.14847541 L50.2695033,7.14847541 L52.0398322,3.0107377 L59.6292179,3.0107377 L57.8268519,7.14847541" id="Fill-22" fill="#231F1F" sketch:type="MSShapeGroup"></path><path d="M57.4846209,6.6255082 L58.8313072,3.53332787 L52.3847015,3.53332787 L51.0617603,6.6255082 L57.4846209,6.6255082" id="Fill-23" fill="#E61D35" sketch:type="MSShapeGroup"></path><path d="M51.0617603,6.6255082 L52.3847015,3.53332787 L52.6409978,3.8647541 L51.5954597,6.2805082 L51.0617603,6.6255082" id="Fill-24" fill="#E61D35" sketch:type="MSShapeGroup"></path><path id="Fill-25" fill="#E61D35" sketch:type="MSShapeGroup" d="M58.8313072,3.53332787 L52.3847015,3.53332787 L52.6409978,3.8647541 L58.3390675,3.8647541 L58.8313072,3.53332787"></path><path d="M57.4846209,6.6255082 L58.8313072,3.53332787 L58.3390675,3.8647541 L57.2731765,6.2805082 L57.4846209,6.6255082" id="Fill-26" fill="#E61D35" sketch:type="MSShapeGroup"></path><path id="Fill-27" fill="#E61D35" sketch:type="MSShapeGroup" d="M51.0617603,6.6255082 L57.4846209,6.6255082 L57.2731765,6.2805082 L51.5954597,6.2805082 L51.0617603,6.6255082"></path></g></g></g></svg>